<?xml version="1.0" encoding="UTF-8" standalone="no"?>
<!DOCTYPE svg PUBLIC "-//W3C//DTD SVG 1.1//EN" "http://www.w3.org/Graphics/SVG/1.1/DTD/svg11.dtd">
<!-- Created with Vectornator (http://vectornator.io/) -->
<svg height="1080.0000000000002px" stroke-miterlimit="10" style="fill-rule:nonzero;clip-rule:evenodd;stroke-linecap:round;stroke-linejoin:round;" version="1.1" viewBox="0 0 1920 1080" width="1919.9999999999998px" xml:space="preserve" xmlns="http://www.w3.org/2000/svg" xmlns:vectornator="http://vectornator.io" xmlns:xlink="http://www.w3.org/1999/xlink">
<defs>
<path d="M1783.56 780L1629.01 780C1621.98 780 1617.4 785.585 1618.78 792.474L1633.79 867.526C1635.17 874.415 1641.98 880 1649.01 880L1763.56 880C1770.59 880 1777.4 874.415 1778.78 867.526L1793.79 792.474C1795.17 785.585 1790.59 780 1783.56 780Z" id="Fill"/>
</defs>
<g id="Layer-2" vectornator:layerName="Layer 2">
<g opacity="1">
<path d="M1675.79 688.686C1705.21 707.886 1706.66 744.343 1706.66 744.343C1706.66 744.343 1667.8 739.491 1647.86 726.581C1624.97 711.771 1614.97 675.308 1614.97 675.308C1614.97 675.308 1649.67 671.635 1675.79 688.686Z" fill="#30d58a" fill-rule="nonzero" opacity="1" stroke="none"/>
<path d="M1730.01 688.578C1700.59 707.778 1699.14 744.235 1699.14 744.235C1699.14 744.235 1738 739.383 1757.95 726.473C1780.83 711.663 1790.83 675.2 1790.83 675.2C1790.83 675.2 1756.13 671.527 1730.01 688.578Z" fill="#30d58a" fill-rule="nonzero" opacity="1" stroke="none"/>
</g>
<g opacity="1">
<use fill="#c16633" fill-rule="nonzero" opacity="1" stroke="none" xlink:href="#Fill"/>
<clipPath id="ClipPath">
<use xlink:href="#Fill"/>
</clipPath>
<g clip-path="url(#ClipPath)">
<g opacity="1">
<path d="M1801.14 760L1611.43 760C1603.07 760 1596.29 766.782 1596.29 775.149L1596.29 804.851C1596.29 813.218 1603.07 820 1611.43 820L1801.14 820C1809.5 820 1816.29 813.218 1816.29 804.851L1816.29 775.149C1816.29 766.782 1809.5 760 1801.14 760Z" fill="#a34218" fill-rule="nonzero" opacity="1" stroke="none"/>
<path d="M1887.97 698.356L1768.71 684.969L1751.32 839.952L1741.94 923.471L1861.19 936.858L1887.97 698.356Z" fill="#a34218" fill-rule="nonzero" opacity="1" stroke="none"/>
</g>
</g>
</g>
<path d="M1801.45 740L1611.12 740C1602.93 740 1596.29 746.643 1596.29 754.837L1596.29 785.163C1596.29 793.357 1602.93 800 1611.12 800L1801.45 800C1809.64 800 1816.29 793.357 1816.29 785.163L1816.29 754.837C1816.29 746.643 1809.64 740 1801.45 740Z" fill="#c16633" fill-rule="nonzero" opacity="1" stroke="none"/>
</g>
<clipPath id="ArtboardFrame">
<rect height="1080" width="1920" x="0" y="0"/>
</clipPath>
<g clip-path="url(#ArtboardFrame)" id="Layer-1" vectornator:layerName="Layer 1">
<g opacity="1">
<path d="M161.533 600L350.97 600C373.908 600 392.503 618.577 392.503 641.493L392.503 778.507C392.503 801.423 373.908 820 350.97 820L161.533 820C138.595 820 120 801.423 120 778.507L120 641.493C120 618.577 138.595 600 161.533 600Z" fill="#ed6d25" fill-rule="nonzero" opacity="1" stroke="none"/>
<path d="M211.435 600L395.08 600C413.555 600 428.532 614.963 428.532 633.42L428.532 786.58C428.532 805.037 413.555 820 395.08 820L211.435 820C192.959 820 177.982 805.037 177.982 786.58L177.982 633.42C177.982 614.963 192.959 600 211.435 600Z" fill="#f2a757" fill-rule="nonzero" opacity="1" stroke="none"/>
<path d="M292.742 600L327.258 600C334.295 600 340 605.705 340 612.742L340 686.408C340 693.445 334.295 699.149 327.258 699.149L292.742 699.149C285.705 699.149 280 693.445 280 686.408L280 612.742C280 605.705 285.705 600 292.742 600Z" fill="#f8f4c7" fill-rule="nonzero" opacity="1" stroke="none"/>
</g>
<g opacity="1">
<path d="M497.357 921.019L769.593 921.019C796.913 921.019 819.06 942.566 819.06 969.146L819.06 1251.87C819.06 1278.45 796.913 1300 769.593 1300L497.357 1300C470.037 1300 447.89 1278.45 447.89 1251.87L447.89 969.146C447.89 942.566 470.037 921.019 497.357 921.019Z" fill="#ed6d25" fill-rule="nonzero" opacity="1" stroke="none"/>
<path d="M572.348 921.019L822.652 921.019C847.771 921.019 868.134 942.566 868.134 969.146L868.134 1251.87C868.134 1278.45 847.771 1300 822.652 1300L572.348 1300C547.229 1300 526.866 1278.45 526.866 1251.87L526.866 969.146C526.866 942.566 547.229 921.019 572.348 921.019Z" fill="#f2a757" fill-rule="nonzero" opacity="1" stroke="none"/>
<path d="M678.13 920L738.138 920C743.658 920 748.134 924.475 748.134 929.996L748.134 1030C748.134 1035.52 743.658 1040 738.138 1040L678.13 1040C672.609 1040 668.134 1035.52 668.134 1030L668.134 929.996C668.134 924.475 672.609 920 678.13 920Z" fill="#f8f4c7" fill-rule="nonzero" opacity="1" stroke="none" vectornator:layerName="(rectangle)"/>
</g>
<g opacity="1">
<path d="M91.3625 816.679L379.807 816.679C408.174 816.679 431.169 839.674 431.169 868.041L431.169 1144.3C431.169 1172.66 408.174 1195.66 379.807 1195.66L91.3625 1195.66C62.9958 1195.66 40 1172.66 40 1144.3L40 868.041C40 839.674 62.9958 816.679 91.3625 816.679Z" fill="#ed6d25" fill-rule="nonzero" opacity="1" stroke="none"/>
<path d="M171.363 816.679L428.881 816.679C457.248 816.679 480.243 839.674 480.243 868.041L480.243 1144.3C480.243 1172.66 457.248 1195.66 428.881 1195.66L171.363 1195.66C142.996 1195.66 120 1172.66 120 1144.3L120 868.041C120 839.674 142.996 816.679 171.363 816.679Z" fill="#f2a757" fill-rule="nonzero" opacity="1" stroke="none"/>
<path d="M371.458 851.82L435.459 851.82C446.794 851.82 455.982 861.008 455.982 872.342L455.982 904.009C455.982 915.343 446.794 924.531 435.459 924.531L371.458 924.531C360.124 924.531 350.936 915.343 350.936 904.009L350.936 872.342C350.936 861.008 360.124 851.82 371.458 851.82Z" fill="#f8f4c7" fill-rule="nonzero" opacity="1" stroke="none"/>
<path d="M217.865 890.993L303.391 890.993C308.782 890.993 313.151 895.362 313.151 900.753L313.151 900.753C313.151 906.143 308.782 910.513 303.391 910.513L217.865 910.513C212.475 910.513 208.105 906.143 208.105 900.753L208.105 900.753C208.105 895.362 212.475 890.993 217.865 890.993Z" fill="#c16633" fill-rule="nonzero" opacity="1" stroke="none"/>
<path d="M217.865 859.126L303.391 859.126C308.782 859.126 313.151 863.496 313.151 868.887L313.151 868.887C313.151 874.277 308.782 878.647 303.391 878.647L217.865 878.647C212.475 878.647 208.105 874.277 208.105 868.887L208.105 868.887C208.105 863.496 212.475 859.126 217.865 859.126Z" fill="#c16633" fill-rule="nonzero" opacity="1" stroke="none"/>
</g>
<g opacity="1">
<path d="M1827.06 880L1554.83 880C1527.51 880 1505.36 901.547 1505.36 928.127L1505.36 1210.85C1505.36 1237.43 1527.51 1258.98 1554.83 1258.98L1827.06 1258.98C1854.38 1258.98 1876.53 1237.43 1876.53 1210.85L1876.53 928.127C1876.53 901.547 1854.38 880 1827.06 880Z" fill="#ed6d25" fill-rule="nonzero" opacity="1" stroke="none"/>
<path d="M1752.07 880L1501.77 880C1476.65 880 1456.29 901.547 1456.29 928.127L1456.29 1210.85C1456.29 1237.43 1476.65 1258.98 1501.77 1258.98L1752.07 1258.98C1777.19 1258.98 1797.55 1237.43 1797.55 1210.85L1797.55 928.127C1797.55 901.547 1777.19 880 1752.07 880Z" fill="#f2a757" fill-rule="nonzero" opacity="1" stroke="none"/>
<path d="M1611.81 919.461L1526.29 919.461C1520.9 919.461 1516.53 923.831 1516.53 929.221L1516.53 929.221C1516.53 934.611 1520.9 938.981 1526.29 938.981L1611.81 938.981C1617.21 938.981 1621.57 934.611 1621.57 929.221L1621.57 929.221C1621.57 923.831 1617.21 919.461 1611.81 919.461Z" fill="#c16633" fill-rule="nonzero" opacity="1" stroke="none"/>
</g>
<path d="M1677.05 918.981L1741.05 918.981C1752.39 918.981 1761.57 928.168 1761.57 939.501L1761.57 971.172C1761.57 982.505 1752.39 991.692 1741.05 991.692L1677.05 991.692C1665.72 991.692 1656.53 982.505 1656.53 971.172L1656.53 939.501C1656.53 928.168 1665.72 918.981 1677.05 918.981Z" fill="#f8f4c7" fill-rule="nonzero" opacity="1" stroke="none"/>
</g>
</svg>
