<?xml version="1.0" encoding="UTF-8" standalone="no"?>
<!DOCTYPE svg PUBLIC "-//W3C//DTD SVG 1.1//EN" "http://www.w3.org/Graphics/SVG/1.1/DTD/svg11.dtd">
<!-- Created with Vectornator (http://vectornator.io/) -->
<svg height="1080.0000000000002px" stroke-miterlimit="10" style="fill-rule:nonzero;clip-rule:evenodd;stroke-linecap:round;stroke-linejoin:round;" version="1.1" viewBox="0 0 1920 1080" width="1919.9999999999998px" xml:space="preserve" xmlns="http://www.w3.org/2000/svg" xmlns:xlink="http://www.w3.org/1999/xlink">
<defs>
<path d="M1727.28 780L1572.72 780C1565.7 780 1561.12 785.585 1562.49 792.474L1577.51 867.526C1578.88 874.415 1585.7 880 1592.72 880L1707.28 880C1714.3 880 1721.12 874.415 1722.49 867.526L1737.51 792.474C1738.88 785.585 1734.3 780 1727.28 780Z" id="Fill"/>
</defs>
<g id="Layer-2">
<g opacity="1">
<g opacity="1">
<path d="M1619.51 688.686C1648.93 707.886 1650.38 744.343 1650.38 744.343C1650.38 744.343 1611.52 739.491 1591.57 726.581C1568.69 711.771 1558.69 675.308 1558.69 675.308C1558.69 675.308 1593.38 671.635 1619.51 688.686Z" fill="#418866" fill-rule="nonzero" opacity="1" stroke="none"/>
<path d="M1673.72 688.578C1644.3 707.778 1642.85 744.235 1642.85 744.235C1642.85 744.235 1681.71 739.383 1701.66 726.473C1724.54 711.663 1734.54 675.2 1734.54 675.2C1734.54 675.2 1699.85 671.527 1673.72 688.578Z" fill="#418866" fill-rule="nonzero" opacity="1" stroke="none"/>
</g>
<g opacity="1">
<use fill="#c16633" fill-rule="nonzero" opacity="1" stroke="none" xlink:href="#Fill"/>
<clipPath id="ClipPath">
<use xlink:href="#Fill"/>
</clipPath>
<g clip-path="url(#ClipPath)">
<g opacity="1">
<path d="M1744.85 760L1555.15 760C1546.78 760 1540 766.782 1540 775.149L1540 804.851C1540 813.218 1546.78 820 1555.15 820L1744.85 820C1753.22 820 1760 813.218 1760 804.851L1760 775.149C1760 766.782 1753.22 760 1744.85 760Z" fill="#91564b" fill-rule="nonzero" opacity="1" stroke="none"/>
<path d="M1824 766.767L1704.75 753.381L1694.5 844.664L1688.98 893.856L1808.23 907.242L1824 766.767Z" fill="#91564b" fill-rule="nonzero" opacity="1" stroke="none"/>
</g>
</g>
</g>
<path d="M1745.16 740L1554.84 740C1546.64 740 1540 746.643 1540 754.837L1540 785.163C1540 793.357 1546.64 800 1554.84 800L1745.16 800C1753.36 800 1760 793.357 1760 785.163L1760 754.837C1760 746.643 1753.36 740 1745.16 740Z" fill="#c16633" fill-rule="nonzero" opacity="1" stroke="none"/>
</g>
</g>
<clipPath id="ArtboardFrame">
<rect height="1080" width="1920" x="0" y="0"/>
</clipPath>
<g clip-path="url(#ArtboardFrame)" id="Layer-1">
<g opacity="1">
<path d="M1827.06 880L1554.83 880C1527.51 880 1505.36 901.547 1505.36 928.127L1505.36 1210.85C1505.36 1237.43 1527.51 1258.98 1554.83 1258.98L1827.06 1258.98C1854.38 1258.98 1876.53 1237.43 1876.53 1210.85L1876.53 928.127C1876.53 901.547 1854.38 880 1827.06 880Z" fill="#c1603c" fill-rule="nonzero" opacity="1" stroke="none"/>
<path d="M1752.07 880L1501.77 880C1476.65 880 1456.29 901.547 1456.29 928.127L1456.29 1210.85C1456.29 1237.43 1476.65 1258.98 1501.77 1258.98L1752.07 1258.98C1777.19 1258.98 1797.55 1237.43 1797.55 1210.85L1797.55 928.127C1797.55 901.547 1777.19 880 1752.07 880Z" fill="#d48a5f" fill-rule="nonzero" opacity="1" stroke="none"/>
<path d="M1611.81 919.461L1526.29 919.461C1520.9 919.461 1516.53 923.831 1516.53 929.221L1516.53 929.221C1516.53 934.611 1520.9 938.981 1526.29 938.981L1611.81 938.981C1617.21 938.981 1621.57 934.611 1621.57 929.221L1621.57 929.221C1621.57 923.831 1617.21 919.461 1611.81 919.461Z" fill="#c16633" fill-rule="nonzero" opacity="1" stroke="none"/>
<path d="M1677.05 918.981L1741.05 918.981C1752.39 918.981 1761.57 928.168 1761.57 939.501L1761.57 971.172C1761.57 982.505 1752.39 991.692 1741.05 991.692L1677.05 991.692C1665.72 991.692 1656.53 982.505 1656.53 971.172L1656.53 939.501C1656.53 928.168 1665.72 918.981 1677.05 918.981Z" fill="#ebdcc1" fill-rule="nonzero" opacity="1" stroke="none"/>
</g>
<path d="M240 480L420 480L493.203 648.101L681.28 1080L80 1060L39.2531 955.348L98.5844 814.858L160 820L121.248 761.194L240 480Z" fill="#edc45e" fill-opacity="0.5" fill-rule="nonzero" opacity="0.484488" stroke="none" />
<path d="M320 340L340 340L340 572.607L320 572.607L320 340Z" fill="#15120f" fill-rule="nonzero" opacity="1" stroke="none"/>
<g opacity="1">
<path d="M161.533 600L350.97 600C373.908 600 392.503 618.577 392.503 641.493L392.503 778.507C392.503 801.423 373.908 820 350.97 820L161.533 820C138.595 820 120 801.423 120 778.507L120 641.493C120 618.577 138.595 600 161.533 600Z" fill="#c1603c" fill-rule="nonzero" opacity="1" stroke="none"/>
<path d="M211.435 600L395.08 600C413.555 600 428.532 614.963 428.532 633.42L428.532 786.58C428.532 805.037 413.555 820 395.08 820L211.435 820C192.959 820 177.982 805.037 177.982 786.58L177.982 633.42C177.982 614.963 192.959 600 211.435 600Z" fill="#d48a5f" fill-rule="nonzero" opacity="1" stroke="none"/>
<path d="M292.742 600L327.258 600C334.295 600 340 605.705 340 612.742L340 686.408C340 693.445 334.295 699.149 327.258 699.149L292.742 699.149C285.705 699.149 280 693.445 280 686.408L280 612.742C280 605.705 285.705 600 292.742 600Z" fill="#ebdcc1" fill-rule="nonzero" opacity="1" stroke="none"/>
</g>
<g opacity="1"/>
<g opacity="1">
<path d="M497.357 921.019L769.593 921.019C796.913 921.019 819.06 942.566 819.06 969.146L819.06 1251.87C819.06 1278.45 796.913 1300 769.593 1300L497.357 1300C470.037 1300 447.89 1278.45 447.89 1251.87L447.89 969.146C447.89 942.566 470.037 921.019 497.357 921.019Z" fill="#c1603c" fill-rule="nonzero" opacity="1" stroke="none"/>
<path d="M572.348 921.019L822.652 921.019C847.771 921.019 868.134 942.566 868.134 969.146L868.134 1251.87C868.134 1278.45 847.771 1300 822.652 1300L572.348 1300C547.229 1300 526.866 1278.45 526.866 1251.87L526.866 969.146C526.866 942.566 547.229 921.019 572.348 921.019Z" fill="#d48a5f" fill-rule="nonzero" opacity="1" stroke="none"/>
<path d="M678.13 920L738.138 920C743.658 920 748.134 924.475 748.134 929.996L748.134 1030C748.134 1035.52 743.658 1040 738.138 1040L678.13 1040C672.609 1040 668.134 1035.52 668.134 1030L668.134 929.996C668.134 924.475 672.609 920 678.13 920Z" fill="#ebdcc1" fill-rule="nonzero" opacity="1" stroke="none"/>
</g>
<path d="M289.525 565.14L370.475 565.14C375.735 565.14 380 569.405 380 574.665L380 590.475C380 595.735 375.735 600 370.475 600L289.525 600C284.265 600 280 595.735 280 590.475L280 574.665C280 569.405 284.265 565.14 289.525 565.14Z" fill="#15120f" fill-rule="nonzero" opacity="1" stroke="none"/>
<g opacity="1">
<path d="M91.3625 816.679L379.807 816.679C408.174 816.679 431.169 839.674 431.169 868.041L431.169 1144.3C431.169 1172.66 408.174 1195.66 379.807 1195.66L91.3625 1195.66C62.9958 1195.66 40 1172.66 40 1144.3L40 868.041C40 839.674 62.9958 816.679 91.3625 816.679Z" fill="#c1603c" fill-rule="nonzero" opacity="1" stroke="none"/>
<path d="M171.363 816.679L428.881 816.679C457.248 816.679 480.243 839.674 480.243 868.041L480.243 1144.3C480.243 1172.66 457.248 1195.66 428.881 1195.66L171.363 1195.66C142.996 1195.66 120 1172.66 120 1144.3L120 868.041C120 839.674 142.996 816.679 171.363 816.679Z" fill="#d48a5f" fill-rule="nonzero" opacity="1" stroke="none"/>
<path d="M371.458 851.82L435.459 851.82C446.794 851.82 455.982 861.008 455.982 872.342L455.982 904.009C455.982 915.343 446.794 924.531 435.459 924.531L371.458 924.531C360.124 924.531 350.936 915.343 350.936 904.009L350.936 872.342C350.936 861.008 360.124 851.82 371.458 851.82Z" fill="#ebdcc1" fill-rule="nonzero" opacity="1" stroke="none"/>
<path d="M217.865 890.993L303.391 890.993C308.782 890.993 313.151 895.362 313.151 900.753L313.151 900.753C313.151 906.143 308.782 910.513 303.391 910.513L217.865 910.513C212.475 910.513 208.105 906.143 208.105 900.753L208.105 900.753C208.105 895.362 212.475 890.993 217.865 890.993Z" fill="#c16633" fill-rule="nonzero" opacity="1" stroke="none"/>
<path d="M217.865 859.126L303.391 859.126C308.782 859.126 313.151 863.496 313.151 868.887L313.151 868.887C313.151 874.277 308.782 878.647 303.391 878.647L217.865 878.647C212.475 878.647 208.105 874.277 208.105 868.887L208.105 868.887C208.105 863.496 212.475 859.126 217.865 859.126Z" fill="#c16633" fill-rule="nonzero" opacity="1" stroke="none"/>
</g>
<path d="M284.791 320L375.209 320C377.855 320 380.753 322.009 381.682 324.486L438.318 475.514C439.247 477.991 437.855 480 435.209 480L224.791 480C222.145 480 220.753 477.991 221.682 475.514L278.318 324.486C279.247 322.009 282.145 320 284.791 320Z" fill="#f7c86f" fill-rule="nonzero" opacity="1" stroke="none"/>
</g>
<g id="Layer-3"/>
</svg>
