<?xml version="1.0" encoding="UTF-8" standalone="no"?>
<!DOCTYPE svg PUBLIC "-//W3C//DTD SVG 1.1//EN" "http://www.w3.org/Graphics/SVG/1.1/DTD/svg11.dtd">
<!-- Created with Vectornator (http://vectornator.io/) -->
<svg height="700.0pt" stroke-miterlimit="10" style="fill-rule:nonzero;clip-rule:evenodd;stroke-linecap:round;stroke-linejoin:round;" version="1.1" viewBox="0 0 700 700" width="700.0pt" xml:space="preserve" xmlns="http://www.w3.org/2000/svg">
<defs/>
<g id="Logo">
<path d="M350.5 5.4375C341.469 5.4375 332.426 7.11276 324.188 10.4688L37.9688 126.719C18.4563 134.637 6.34375 150.777 6.34375 168.844L6.34375 530.344C6.34375 548.458 18.4814 564.576 37.9688 572.469L324.25 688.75C332.489 692.082 341.488 693.75 350.5 693.75C359.512 693.75 368.547 692.06 376.781 688.719L662.969 572.469C682.524 564.575 694.656 548.435 694.656 530.344L694.656 168.844C694.656 150.796 682.532 134.636 663 126.719L376.781 10.4688C368.552 7.11276 359.531 5.4375 350.5 5.4375ZM350.531 48.4688C354.07 48.4717 357.602 49.0978 360.625 50.3125L618.062 154.875L517.656 195.031L258.062 83.7812L340.438 50.3125C343.46 49.0858 346.993 48.4658 350.531 48.4688ZM205.062 105.281C207.157 107.769 209.776 109.858 212.969 111.219L461.188 217.625L350.469 261.906L82.9375 154.875L205.062 105.281ZM49.1875 187.719L329 299.625L329 644.188L192.031 588.594L192.031 518.219C192.031 506.345 182.392 496.719 170.5 496.719C158.607 496.719 149 506.345 149 518.219L149 571.094L54.1562 532.594C51.3721 531.481 49.9481 530.201 49.5312 530.188C49.4448 530.187 49.4062 530.238 49.4062 530.344L49.1875 187.719ZM544.094 230.781L544.094 306.562C544.094 318.436 534.486 328.094 522.594 328.094C510.701 328.094 501.062 318.436 501.062 306.562L501.062 247.969L544.094 230.781ZM512.438 429.531C514.849 429.903 515.789 431.258 516.219 431.688C516.982 432.451 518.062 437.246 518.062 441.062C518.063 444.879 516.233 450.434 511.125 452.938C504.211 456.326 481.75 465.906 481.75 465.906C481.75 465.906 482.879 591.839 482.625 593.875C482.371 595.91 481.464 598.174 479.938 600.719C478.411 603.263 476.902 605.045 475.375 606.062C473.848 607.08 472.187 607.746 470.406 608C468.625 608.254 466.964 607.741 465.438 606.469C463.911 605.197 463.036 603.929 462.781 602.656C462.527 601.384 461.188 474.031 461.188 474.031C461.187 474.031 435.096 484.681 430.156 486.594C426.099 488.165 422.804 484.679 421.531 483.406C420.259 482.134 419.625 479.839 419.625 476.531C419.625 473.224 419.866 470.929 420.375 469.656C420.884 468.384 423.009 465.536 427.031 463.656C433.191 460.777 497.568 434.022 503.719 431.344C506.066 430.322 507.946 429.781 509.5 429.562C510.666 429.399 511.634 429.407 512.438 429.531ZM391.781 473.625C394.58 473.879 397.466 477.943 397.5 480.219C397.616 487.974 397.545 627.369 397.406 631.25C397.24 635.894 394.089 640.639 392.562 641.656C391.036 642.674 387.317 644.371 385.281 644.625C383.246 644.879 378.719 642.576 378.719 636C378.719 629.424 378.66 491.785 378.594 485.375C378.56 482.128 380.674 477.594 383.219 475.812C385.763 474.031 388.982 473.371 391.781 473.625ZM74.625 213.062C71.8261 212.808 69.29 213.442 67 214.969C64.71 216.495 63.049 218.277 62.0312 220.312C61.0135 222.348 60.2589 224.522 59.75 226.812C59.2411 229.102 59.1206 233.541 59.375 240.156C59.6294 246.772 60.384 252.116 61.6562 256.188C62.9285 260.259 64.71 264.215 67 268.031C69.29 271.848 73.4871 276.92 79.5938 283.281C85.7004 289.642 89.384 294.505 90.6562 297.812C91.9285 301.12 92.5625 304.532 92.5625 308.094C92.5625 311.656 92.2008 314.344 91.4375 316.125C90.6742 317.906 89.5267 319.054 88 319.562C86.4733 320.071 84.2989 319.678 81.5 318.406C78.7011 317.134 75.8926 314.839 73.0938 311.531C70.2949 308.223 67.6382 304.026 65.0938 298.938C63.8215 296.393 63.3122 292.563 59.875 292.938C57.7757 293.166 57.5944 294.93 57.8438 298.188C58.0776 301.242 59.3709 306.585 63.1875 314.219C67.0042 321.852 70.5672 327.197 73.875 330.25C77.1828 333.303 80.8664 335.326 84.9375 336.344C89.0086 337.362 92.1788 336.969 94.4688 335.188C96.7587 333.406 98.4197 331.384 99.4375 329.094C100.455 326.804 100.969 320.946 100.969 311.531C100.969 302.117 99.7007 294.236 97.1562 287.875C94.6118 281.514 89.6289 274.267 82.25 266.125C74.8711 257.983 70.674 252.518 69.6562 249.719C68.6385 246.92 68.1563 243.991 68.1562 240.938C68.1562 237.884 68.9108 235.348 70.4375 233.312C71.9642 231.277 73.6251 230.25 75.4062 230.25C77.1874 230.25 78.8171 230.612 80.3438 231.375C81.8704 232.138 83.8038 233.92 86.0938 236.719C88.3837 239.518 90.0135 242.447 91.0312 245.5C92.049 248.553 92.8511 250.975 94.125 252.5C95.7833 254.486 97.3974 253.665 97.9062 253.156C98.924 252.138 99.4375 249.964 99.4375 246.656C99.4375 243.348 98.924 240.178 97.9062 237.125C96.8885 234.072 95.1069 230.509 92.5625 226.438C90.0181 222.366 87.089 219.165 83.7812 216.875C80.4735 214.585 77.4239 213.317 74.625 213.062ZM110 230.062C108.652 230.681 105.804 232.902 106.312 236.719C106.821 240.535 107.277 243.768 112.875 246.312C117.112 248.238 123.625 250.719 123.625 250.719C123.625 250.719 123.79 347.665 125.062 350.719C126.335 353.772 128.822 355.594 130.094 355.594C131.366 355.594 133.397 354.33 133.906 353.312C134.415 352.295 134.156 254.656 134.156 254.656C134.156 254.656 146.29 259.156 147.562 259.156C148.835 259.156 150.835 258.857 151.344 258.094C151.853 257.33 152.125 255.549 152.125 252.75C152.125 249.951 151.755 247.62 150 245.5C148.218 243.347 111.346 229.445 110 230.062ZM174.625 252.375C172.335 252.375 169.678 253.523 166.625 255.812C163.572 258.102 161.004 261.938 158.969 267.281C156.933 272.625 155.545 278.21 154.781 284.062C154.018 289.915 153.897 298.943 154.406 311.156C154.915 323.37 156.063 333.032 157.844 340.156C159.625 347.281 161.92 353.532 164.719 358.875C167.518 364.218 170.415 368.295 173.469 371.094C176.522 373.893 179.331 375.795 181.875 376.812C184.419 377.83 186.594 378.344 188.375 378.344C190.156 378.344 192.572 377.317 195.625 375.281C198.678 373.246 201.335 369.29 203.625 363.438C205.915 357.585 207.455 351.607 208.219 345.5C208.982 339.393 209.103 330.879 208.594 319.938C208.085 308.996 207.21 300.482 205.938 294.375C204.665 288.268 202.611 282.017 199.812 275.656C197.014 269.295 193.964 264.343 190.656 260.781C187.348 257.219 184.419 254.924 181.875 253.906C179.331 252.888 176.915 252.375 174.625 252.375ZM177.688 270.312C179.977 270.567 182.393 271.714 184.938 273.75C187.482 275.786 189.777 278.715 191.812 282.531C193.848 286.348 195.478 291.059 196.75 296.656C198.022 302.254 198.687 311.162 198.688 323.375C198.688 335.588 197.902 343.982 196.375 348.562C194.848 353.142 193.187 356.192 191.406 357.719C189.625 359.245 187.361 359.88 184.562 359.625C181.764 359.371 179.076 358.103 176.531 355.812C173.987 353.523 171.964 350.866 170.438 347.812C168.911 344.759 167.491 340.683 166.219 335.594C164.947 330.505 164.071 323.62 163.562 314.969C163.054 306.318 163.054 299.584 163.562 294.75C164.071 289.916 164.826 285.718 165.844 282.156C166.862 278.594 168.522 275.665 170.812 273.375C173.102 271.085 175.398 270.058 177.688 270.312ZM224.281 274.125C222.069 274.122 219.951 274.253 219.075 275.762C217.304 278.813 215.92 387.596 217.156 390.469C218.022 392.479 222.857 393.594 223.875 393.594C224.893 393.594 225.647 393.201 226.156 392.438C226.665 391.674 227.058 353.665 227.312 353.156C227.567 352.647 234.563 356.188 234.562 356.188C234.562 356.188 250.192 402.697 251.719 403.969C252.482 404.605 254.58 406.716 256.625 406.906C258.707 406.313 260.241 405.386 260.75 404.75C261.768 403.478 261.198 401.91 260.5 398.938C259.793 395.924 249.538 366.129 247.375 360.531C248.52 360.531 250.73 360.969 251.875 360.969C254.165 360.969 255.572 360.17 256.844 359.406C258.116 358.643 258.973 357.08 260.5 354.281C262.027 351.482 263.174 347.165 263.938 341.312C264.701 335.46 264.821 328.727 264.312 321.094C263.804 313.46 262.928 307.482 261.656 303.156C260.384 298.831 258.33 294.634 255.531 290.562C252.732 286.491 249.442 283.29 245.625 281C241.808 278.71 237.218 276.808 231.875 275.281C229.203 274.518 226.494 274.128 224.281 274.125ZM227.688 292.469C227.688 292.469 231.246 292.339 236.844 294.375C242.442 296.411 246.518 299.067 249.062 302.375C251.607 305.683 253.237 309.125 254 312.688C254.763 316.25 255.156 320.326 255.156 324.906C255.156 329.486 254.643 333.29 253.625 336.344C252.607 339.397 251.076 341.041 249.062 342.312C247.2 343.488 241.495 341.509 238.188 341C234.88 340.491 227.406 337.281 227.406 337.281L227.688 292.469ZM281.875 295.125C279.839 295.125 278.058 296.273 276.531 298.562C275.005 300.852 273.978 303.902 273.469 307.719C272.96 311.535 273.862 392.076 274.625 396.656C275.388 401.236 276.415 405.041 277.688 408.094C278.96 411.147 280.589 413.563 282.625 415.344C284.661 417.125 290.018 420.459 299.531 423.75C309.034 427.037 313.331 427.656 314.156 426.688C314.978 425.723 315.978 423.634 315.469 419.562C314.96 415.491 313.54 412.683 311.25 411.156C309.205 409.793 286.705 400.585 285.688 399.312C284.67 398.04 284.036 396.652 283.781 395.125C283.527 393.598 283.406 368.647 283.406 363.812C286.841 365.085 303.888 371.254 304.906 371C305.924 370.746 307.183 370.326 307.438 369.562C307.692 368.799 307.938 366.236 307.938 363.438C307.938 360.639 307.178 359.004 305.906 356.969C304.634 354.933 283.75 348.938 283.75 348.938L284.469 313.156C284.469 313.156 290.999 315.477 299.062 318.031C306.912 320.518 309.395 321.086 310.469 320.062C311.408 319.168 313.036 317.152 312.781 313.844C312.527 310.536 311.772 308.089 310.5 306.562C309.228 305.036 283.911 295.125 281.875 295.125Z" fill="#ffffff" fill-rule="nonzero" opacity="1" stroke="none"/>
</g>
</svg>
