<svg version="1.2" xmlns="http://www.w3.org/2000/svg" viewBox="0 0 563 562" width="563" height="562">
	<title>noun-box-598271-svg</title>
	<defs>
		<clipPath clipPathUnits="userSpaceOnUse" id="cp1">
			<path d="m282 560c-7.33 0-14.66-1.35-21.37-4.06l-232.91-94.6c-15.85-6.43-25.72-19.55-25.72-34.29v-294.12c0-14.7 9.85-27.82 25.72-34.26l232.87-94.57c13.41-5.47 29.4-5.47 42.79 0l232.87 94.57c15.89 6.44 25.74 19.58 25.74 34.26v294.12c0 14.72-9.85 27.86-25.76 34.28l-232.86 94.59c-6.7 2.72-14.05 4.08-21.38 4.08zm-244.89-133.07c0.33 0 1.5 1.05 3.78 1.96l223.61 90.81v-280.35l-227.65-91.05 0.16 278.75q0-0.12 0.11-0.12zm486.02 1.96h0.02c2.69-1.09 3.86-2.38 4.04-2.73l-0.17-277.84-87.52 35.01v61.67c0 9.66-7.82 17.5-17.5 17.5-9.68 0-17.5-7.84-17.5-17.5v-47.67l-105 42v280.4zm-232.89-392.39c-4.92-1.98-11.51-2-16.43 0l-67.03 27.22 211.21 90.52 81.69-32.68zm-225.94 85.08l217.67 87.07 90.08-36.04-201.95-86.55c-2.6-1.11-4.79-2.78-6.5-4.81z"/>
		</clipPath>
	</defs>
	<style>
		.s0 { fill: #000000 } 
	</style>
	<g id="Layer">
		<g clip-path="url(#cp1)">
			<path id="Layer" fill-rule="evenodd" class="s0" d="m282 560c-7.3 0-14.7-1.3-21.4-4.1l-232.9-94.6c-15.8-6.4-25.7-19.5-25.7-34.2v-294.2c0-14.7 9.8-27.8 25.7-34.2l232.9-94.6c13.4-5.5 29.4-5.5 42.8 0l232.9 94.6c15.8 6.4 25.7 19.5 25.7 34.2v294.2c0 14.7-9.9 27.8-25.8 34.2l-232.8 94.6c-6.7 2.7-14.1 4.1-21.4 4.1zm-244.9-133.1c0.3 0 1.5 1.1 3.8 2l223.6 90.8v-280.3l-227.7-91.1 0.2 278.8q0-0.2 0.1-0.2zm486 2c2.7-1.1 3.9-2.4 4.1-2.7l-0.2-277.9-87.5 35v61.7c0 9.7-7.8 17.5-17.5 17.5-9.7 0-17.5-7.8-17.5-17.5v-47.7l-105 42v280.4zm-232.9-392.4c-4.9-1.9-11.5-2-16.4 0l-67.1 27.3 211.3 90.5 81.6-32.7zm-225.9 85.1l217.7 87 90.1-36-202-86.5c-2.6-1.1-4.8-2.8-6.5-4.8z"/>
			<rect width="563" height="562" id="Color Fill 1" style="fill: #ffffff"/>
		</g>
	</g>
</svg>